<svg width="40" height="40" viewBox="0 0 40 40" fill="none" xmlns="http://www.w3.org/2000/svg">
<mask id="mask0_2091_342" style="mask-type:luminance" maskUnits="userSpaceOnUse" x="0" y="0" width="40" height="40">
<path d="M20 0C25.3043 0 30.3914 2.10714 34.1421 5.85786C37.8929 9.60859 40 14.6957 40 20C40 31.0457 31.0457 40 20 40C8.95431 40 0 31.0457 0 20C0 14.6957 2.10714 9.6086 5.85786 5.85787C9.60859 2.10714 14.6957 0 20 0Z" fill="white"/>
</mask>
<g mask="url(#mask0_2091_342)">
<path d="M4.04053 40L15.238 28.8025V40H4.04053Z" fill="#012169"/>
<path d="M0 40H4.04059L7.87816 36.1624H7.87818L15.2381 28.8025V40H24.7619V28.8025L32.1218 36.1624L35.9594 40H40V35.9594L36.1624 32.1218L28.8025 24.7619H40V15.2381H28.8025L36.1624 7.87816L40 4.04059V0H35.9594L32.1218 3.83757L24.7619 11.1975V0H15.2381V11.1975L7.87818 3.83757H7.87816L4.04059 0H0V4.04059L3.83757 7.87816L11.1975 15.2381H0V24.7619H11.1975L3.83757 32.1218L0 35.9594V40Z" fill="#EBEBEB"/>
<path d="M0 22.8571H17.1429V40H22.8571V22.8571H40V17.1429H22.8571V0H17.1429V17.1429H0V22.8571Z" fill="#C8102E"/>
<path d="M24.762 15.2381L40.0001 0H37.3063L24.762 12.5444V15.2381Z" fill="#C8102E"/>
<path d="M0 40H2.69375L15.2381 27.4556V24.7619L0 40Z" fill="#C8102E"/>
<path d="M0 2.69375L12.5444 15.2381H15.2381L0 0V2.69375Z" fill="#C8102E"/>
<path d="M40.0001 37.3062L27.4557 24.7619H24.762L40.0001 40V37.3062Z" fill="#C8102E"/>
<path d="M0 35.9594L11.1975 24.7619H0V35.9594Z" fill="#012169"/>
<path d="M4.04053 0L15.238 11.1975V0H4.04053Z" fill="#012169"/>
<path d="M0 4.04059L11.1975 15.2381L0 15.2381V4.04059Z" fill="#012169"/>
<path d="M35.9595 40L24.762 28.8025L24.762 40H35.9595Z" fill="#012169"/>
<path d="M40 35.9594L28.8025 24.7619H40V35.9594Z" fill="#012169"/>
<path d="M35.9595 0L24.762 11.1975V0H35.9595Z" fill="#012169"/>
<path d="M40 4.04059L28.8025 15.2381L40 15.2381V4.04059Z" fill="#012169"/>
</g>
</svg>
