<svg width="417" height="75" viewBox="0 0 417 75" fill="none" xmlns="http://www.w3.org/2000/svg">
<path d="M84.8468 4.72933C83.8839 3.27511 82.5764 2.08224 81.0411 1.25701C79.5058 0.431958 77.7905 0 76.0485 0H51.744L65.1597 20.7045C66.1245 22.1564 67.432 23.3466 68.9673 24.1692C70.5027 24.9917 72.216 25.4212 73.958 25.4189H98.2721L84.8468 4.72933Z" fill="white"/>
<path d="M65.1712 36.5008C66.1341 35.047 67.4435 33.8543 68.9788 33.0293C70.5141 32.204 72.2294 31.7721 73.9714 31.7715H98.274L84.8583 52.466C83.8954 53.921 82.5879 55.1145 81.0507 55.9397C79.5154 56.7649 77.8001 57.1963 76.0581 57.1954H51.744L65.1712 36.5008Z" fill="white"/>
<path d="M54.6583 37.0485C55.9868 35.0252 57.6504 33.2439 59.5781 31.7815H33.7688C32.0269 31.7823 30.3124 32.2144 28.7775 33.0395C27.2426 33.8647 25.9351 35.0572 24.9714 36.5108L0 75.0001H24.3106C26.0517 75.002 27.7662 74.5725 29.3015 73.7502C30.8368 72.9276 32.1454 71.7374 33.1104 70.2857L54.6583 37.0485Z" fill="white"/>
<path d="M116.033 31.7834H126.02C131.796 31.7834 135.829 33.6403 135.829 40.1444C135.829 46.1432 132.232 48.7717 126.24 48.7717H122.04V57.1999H116.041L116.033 31.7834ZM122.033 43.323H125.264C125.99 43.323 129.577 43.4948 129.577 40.2216C129.577 36.8563 126.751 36.9857 124.508 36.9857H122.023L122.033 43.323Z" fill="white"/>
<path d="M145.007 37.384V41.6304H155.327V47.2235H145.014V51.6043H155.696V57.1999H139.034V31.7834H155.696V37.384H145.007Z" fill="white"/>
<path d="M195.196 57.2004H189.198V37.382H182.257V31.7815H202.133V37.382H195.194L195.196 57.2004Z" fill="white"/>
<path d="M208.195 52.7872L206.6 57.2004H200.237L209.116 31.7815H215.655L224.352 57.2004H217.962L216.47 52.7872H208.195ZM212.381 39.6372H212.324L209.839 47.7318H214.82L212.381 39.6372Z" fill="white"/>
<path d="M230.127 31.7834H236.027L240.706 45.3691L245.673 31.7834H251.637L255.115 57.1999H249.125L247.435 42.5713H247.375L241.843 57.1999H239.456L234.162 42.5713H234.107L232.179 57.1999H226.216L230.127 31.7834Z" fill="white"/>
<path d="M264.989 31.7834H258.998V57.1999H264.989V31.7834Z" fill="white"/>
<path d="M270.272 31.7834H276.267L287.244 47.323H287.315V31.7834H293.299V57.1999H287.311L276.321 41.6329H276.265V57.1999H270.268L270.272 31.7834Z" fill="white"/>
<path d="M304.311 52.7872L302.719 57.2004H296.355L305.228 31.7815H311.777L320.455 57.2004H314.063L312.572 52.7872H304.311ZM308.5 39.6372H308.439L305.965 47.7318H310.935L308.5 39.6372Z" fill="white"/>
<path d="M182.478 57.1992H175.052L167.782 47.4543L166.752 47.4195H166.691V57.1992H160.699V31.7803H171.878C172.943 31.6601 174.021 31.7778 175.033 32.1253C176.048 32.4727 176.971 33.0412 177.738 33.7896C178.506 34.5381 179.097 35.4477 179.473 36.4532C179.846 37.4586 179.993 38.5344 179.901 39.6036C179.999 41.3073 179.469 42.9879 178.414 44.3266C177.357 45.6654 175.847 46.5691 174.17 46.8669L182.478 57.1992ZM166.691 43.1108H169.497C171.457 43.1108 173.655 42.7076 173.655 39.9421C173.655 37.1767 171.457 36.781 169.497 36.781H166.679L166.691 43.1108Z" fill="white"/>
<g clip-path="url(#clip0_366_3590)">
<path d="M360.979 10.2769L355.838 10.2791L356.409 9.25146H370.8L369.661 11.3076H360.407C360.562 11.0287 360.771 10.6535 360.979 10.2776V10.2769Z" fill="white"/>
<path d="M354.535 23.6421H364.02C364.378 22.8245 364.94 22.1185 365.647 21.5859H349.796C349.692 21.9267 349.606 22.266 349.532 22.6136H354.77C354.679 22.9521 354.6 23.2944 354.536 23.6413L354.535 23.6421Z" fill="white"/>
<path d="M373.441 23.6421H382.975C382.875 22.9406 382.723 22.2514 382.525 21.5859H371.814C372.52 22.1177 373.084 22.8245 373.44 23.6421H373.441Z" fill="white"/>
<path d="M354.935 29.8095H365.647C364.94 29.28 364.375 28.571 364.018 27.7534H349.346C349.395 28.1003 349.457 28.4449 349.531 28.7811H354.671C354.747 29.1288 354.835 29.4718 354.935 29.8088V29.8095Z" fill="white"/>
<path d="M371.815 29.8095H382.526C382.724 29.144 382.875 28.4579 382.976 27.7534H373.444C373.088 28.571 372.522 29.28 371.815 29.8095H371.815Z" fill="white"/>
<path d="M354.375 26.7258H363.694C363.627 26.3942 363.591 26.0496 363.591 25.6981C363.591 25.3466 363.627 25.002 363.694 24.6704H349.251C349.217 25.0097 349.199 25.3512 349.199 25.6981H354.339C354.339 26.0427 354.352 26.388 354.375 26.7258Z" fill="white"/>
<path d="M383.086 24.6697H373.767C373.903 25.3291 373.903 26.0664 373.767 26.7258H383.086C383.109 26.3866 383.122 26.045 383.122 25.6981C383.122 25.3512 383.109 25.0097 383.086 24.6704V24.6697Z" fill="white"/>
<path d="M363.828 5.13913H373.079L374.218 3.08301H359.826L359.255 4.11069H364.395C364.181 4.49655 363.968 4.8824 363.827 5.13837L363.828 5.13913Z" fill="white"/>
<path d="M362.595 7.36103C362.472 7.58184 362.355 7.79502 362.253 7.9784C362.204 8.0678 362.157 8.15108 362.118 8.22214H371.37L372.508 6.16602H358.117L357.546 7.1937H362.686C362.656 7.24947 362.625 7.30449 362.594 7.36026L362.595 7.36103Z" fill="white"/>
<path d="M365.536 2.05536L374.798 2.03702L375.144 1.41354C375.39 0.972666 375.698 0.418713 375.843 0.155871L375.924 0.00993296H375.922L375.926 0.00229222L366.675 0C366.675 0 366.674 0.00152815 366.674 0.00229222L361.535 0L360.965 1.02768H366.105L365.537 2.05536H365.536Z" fill="white"/>
<path d="M357.202 17.0908C357.127 17.2275 357.053 17.359 356.989 17.4743H380.54C380.026 16.7339 379.443 16.0478 378.801 15.4182H352.99L352.419 16.4459H357.559C357.436 16.6675 357.315 16.886 357.202 17.09V17.0908Z" fill="white"/>
<path d="M355.478 20.5581H382.177C381.902 19.8437 381.573 19.1552 381.193 18.502H351.301C351.127 18.8359 350.957 19.1805 350.793 19.5296H355.933C355.774 19.8658 355.621 20.2089 355.477 20.5573L355.478 20.5581Z" fill="white"/>
<path d="M356.92 33.9219H351.78C352.027 34.2764 352.289 34.618 352.569 34.9496H357.709C358.009 35.3072 358.326 35.6502 358.66 35.9773H378.803C379.445 35.3477 380.028 34.6592 380.543 33.9211H356.92V33.9219Z" fill="white"/>
<path d="M359.829 37.0056H354.689C355.162 37.3785 355.657 37.7223 356.176 38.0333H361.318C361.973 38.4276 362.661 38.773 363.379 39.061H374.08C375.368 38.5445 376.56 37.8507 377.631 37.0049H359.827L359.829 37.0056Z" fill="white"/>
<path d="M355.285 30.8374H350.145C350.277 31.1866 350.426 31.5289 350.585 31.8628L355.725 31.8651C355.891 32.2158 356.071 32.5589 356.264 32.8935H381.197C381.575 32.238 381.904 31.5518 382.176 30.8374H355.285Z" fill="white"/>
<path d="M359.276 13.3629L358.713 14.3906H377.628C376.556 13.5448 375.358 12.8487 374.071 12.3345H354.699L354.129 13.3622H359.276V13.3629Z" fill="white"/>
<path d="M397.565 9.2522L397.001 10.2799L401.108 10.2707L400.538 11.3076H410.827L411.958 9.2522H397.565Z" fill="white"/>
<path d="M383.996 33.9226L383.432 34.9503H387.541L386.978 35.9787H397.265L398.395 33.9226H383.996Z" fill="white"/>
<path d="M382.3 37.0063L381.734 38.034H385.846L385.281 39.0625H395.57L396.7 37.0063H382.3Z" fill="white"/>
<path d="M385.692 30.8389L385.128 31.8643L389.237 31.8666L388.671 32.895H398.96L400.091 30.8381L385.692 30.8389Z" fill="white"/>
<path d="M390.781 21.5874L390.216 22.6151H394.323L393.757 23.6428H404.046L405.176 21.5874H390.781Z" fill="white"/>
<path d="M394.173 15.4197L393.607 16.4474H397.713L397.148 17.475H407.437L408.567 15.4197H394.173Z" fill="white"/>
<path d="M387.389 27.7551L386.823 28.7828H390.932L390.367 29.8105H400.655L401.786 27.7551H387.389Z" fill="white"/>
<path d="M392.477 18.5037L391.911 19.5313H396.017L395.453 20.559H405.736L406.872 18.5037H392.477Z" fill="white"/>
<path d="M389.085 24.6711L388.52 25.6988H392.627L392.063 26.7265H402.333L403.481 24.6711H389.085Z" fill="white"/>
<path d="M395.869 12.3359L395.304 13.3636H399.408L398.843 14.3913L409.132 14.3921L410.262 12.3359H395.869Z" fill="white"/>
<path d="M380.295 5.13986H403.929L405.059 3.08374H377.314L376.75 4.11142L380.86 4.11218L380.295 5.13986Z" fill="white"/>
<path d="M378.6 8.22385H402.234L403.362 6.16772H375.618L375.053 7.19617H379.164L378.6 8.22385Z" fill="white"/>
<path d="M381.992 2.05612L387.408 2.0225L405.625 2.05612L406.744 0.0183378L379.011 0L378.441 1.02844H382.562L381.992 2.05612Z" fill="white"/>
<path d="M357.77 57.0031C357.174 57.0031 356.584 56.8326 356.002 56.4916C354.951 55.9089 354.425 55.0002 354.425 53.7646L354.447 53.1257L354.468 52.8915C354.468 52.7782 354.45 52.6606 354.415 52.5397C354.38 52.4189 354.252 52.3271 354.032 52.2624C353.812 52.1976 353.702 52.0886 353.702 51.9322C353.702 51.7908 353.795 51.6483 353.979 51.5059L354.021 51.4627C354.333 51.3775 354.547 51.2286 354.66 51.0149C354.831 50.6879 354.916 50.4181 354.916 50.2055C355.228 48.9699 355.654 47.7623 356.195 46.5839L356.216 46.5202C356.273 46.4349 356.302 46.3497 356.302 46.2644V46.2008C356.202 46.2148 356.089 46.286 355.961 46.4134C355.861 46.6119 355.705 46.7112 355.492 46.7112C355.379 46.7112 355.258 46.6508 355.13 46.5299C355.002 46.409 354.938 46.2709 354.938 46.1144C354.938 46.0011 354.987 45.8727 355.087 45.7313C355.626 45.1205 356.713 44.595 358.347 44.1547C359.398 43.8849 360.286 43.75 361.01 43.75C361.635 43.75 362.068 43.9701 362.309 44.4104C362.395 44.581 362.437 44.7299 362.437 44.8583C362.437 45.086 362.323 45.1993 362.096 45.1993C361.953 45.1993 361.822 45.1141 361.702 44.9435C361.581 44.773 361.428 44.6878 361.243 44.6878C360.732 44.6878 359.958 44.8302 358.921 45.1141C358.792 45.1572 358.654 45.1993 358.505 45.2414C358.356 45.2846 358.246 45.3838 358.175 45.5392C357.295 47.0878 356.648 48.7141 356.236 50.4181L356.257 50.567C356.527 50.567 356.791 50.5314 357.046 50.4602C357.699 50.3329 358.197 50.2681 358.538 50.2681L359.028 50.2897C359.525 50.3188 359.887 50.4742 360.114 50.758C360.214 50.8573 360.263 50.9426 360.263 51.0138C360.263 51.071 360.238 51.1347 360.189 51.2059C360.139 51.2771 360.065 51.3127 359.965 51.3127L359.838 51.2911C359.511 51.1919 359.178 51.1422 358.837 51.1422C358.353 51.1422 357.708 51.2631 356.897 51.5048C356.4 51.6192 356.116 51.7034 356.045 51.7606C355.974 51.8178 355.91 52.0088 355.853 52.3358C355.768 53.0178 355.725 53.5293 355.725 53.8703C355.725 54.6085 355.902 55.1772 356.259 55.5743C356.614 55.9714 357.082 56.1711 357.665 56.1711C357.963 56.1711 358.268 56.0999 358.581 55.9585C358.666 55.9153 358.744 55.8765 358.815 55.8409C358.886 55.8053 358.972 55.7696 359.071 55.734C359.17 55.6984 359.269 55.6811 359.369 55.6811C359.553 55.6811 359.699 55.7243 359.806 55.8085C359.913 55.8937 359.965 55.993 359.965 56.1063C359.965 56.2056 359.873 56.3125 359.688 56.4258L359.646 56.4474C359.007 56.8164 358.381 57.001 357.77 57.001V57.0031Z" fill="white"/>
<path d="M366.08 54.7446C365.668 54.7446 365.419 54.5525 365.334 54.1694C365.291 53.9708 365.27 53.7722 365.27 53.5726C365.27 52.7632 365.491 51.3776 365.931 49.4179L366.016 48.9916C366.016 48.9635 366.009 48.9387 365.995 48.9171C365.981 48.8955 365.973 48.8783 365.973 48.8642C365.831 48.9495 365.689 49.0984 365.547 49.3121C364.567 50.5909 363.913 51.5136 363.586 52.0823L363.373 52.4017C363.175 52.6575 362.983 52.7848 362.798 52.7848C362.727 52.7848 362.649 52.7708 362.564 52.7417C362.152 52.6424 361.947 52.337 361.947 51.8255C361.947 51.3139 361.996 50.7528 362.096 50.142C362.195 49.5312 362.302 49.1081 362.415 48.874C362.528 48.6398 362.621 48.4973 362.692 48.4477C362.764 48.3981 362.841 48.3732 362.927 48.3732C363.111 48.3732 363.296 48.4585 363.48 48.629C363.593 48.7434 363.651 48.8632 363.651 48.9916C363.579 49.5884 363.537 49.9186 363.523 49.9823C363.509 50.0459 363.494 50.0999 363.481 50.142C363.467 50.1841 363.46 50.2197 363.46 50.2488C363.545 50.2067 363.609 50.1495 363.652 50.0783C364.191 49.283 364.76 48.5308 365.356 47.8196C365.81 47.2941 366.222 47.0308 366.591 47.0308C367.131 47.0308 367.401 47.3793 367.401 48.0743C367.401 48.2308 367.359 48.465 367.273 48.7779C366.635 51.179 366.308 52.8765 366.293 53.8705C366.293 54.041 366.308 54.2115 366.336 54.382V54.4456C366.336 54.6442 366.25 54.7435 366.08 54.7435V54.7446Z" fill="white"/>
<path d="M370.064 54.1479C369.34 54.0918 368.729 53.7001 368.231 52.9759C367.99 52.5497 367.869 52.1094 367.869 51.655C367.912 50.4615 368.394 49.4255 369.318 48.5438C369.858 48.0895 370.411 47.8618 370.98 47.8618C371.804 47.8618 372.216 48.1888 372.216 48.8417C372.216 48.9982 372.205 49.1082 372.183 49.1719C372.162 49.2356 372.145 49.296 372.13 49.3532C372.045 49.623 371.833 49.9316 371.492 50.2802C371.151 50.6288 370.782 50.9191 370.383 51.1532C369.985 51.3874 369.644 51.505 369.36 51.505C369.133 51.505 368.998 51.5342 368.956 51.5903C368.914 51.6475 368.892 51.7684 368.892 51.9529C368.892 52.3079 369.013 52.5777 369.255 52.7623C369.496 52.9468 369.716 53.0396 369.915 53.0396C370.114 53.0396 370.348 52.9479 370.619 52.7623C370.675 52.7342 370.732 52.7202 370.789 52.7202C370.902 52.7202 371.006 52.7882 371.098 52.9231C371.189 53.058 371.236 53.1896 371.236 53.317L371.214 53.4875C370.987 53.9278 370.603 54.1479 370.064 54.1479ZM369.489 50.4194L369.596 50.3978C370.107 50.128 370.547 49.773 370.916 49.3327C371.016 49.2334 371.065 49.1266 371.065 49.0133C371.065 48.9421 371.03 48.9064 370.959 48.9064C370.873 48.9064 370.746 48.9496 370.575 49.0338C370.278 49.1622 370.028 49.3608 369.83 49.6306C369.574 49.9716 369.447 50.2198 369.447 50.3763C369.447 50.4054 369.461 50.4194 369.49 50.4194H369.489Z" fill="white"/>
<path d="M373.239 53.7429H373.132C372.805 53.6716 372.65 53.4871 372.664 53.1893L372.685 52.9551C373.012 49.9011 373.381 48.1043 373.794 47.5647C373.879 47.4654 374.014 47.4158 374.198 47.4158C374.653 47.4158 374.865 47.6079 374.837 47.991L374.411 49.5676C375.533 48.3741 376.321 47.7784 376.776 47.7784C377.274 47.7784 377.508 47.991 377.48 48.4172C377.48 48.5025 377.437 48.5446 377.353 48.5446C376.756 48.7572 376.128 49.2687 375.467 50.078C374.807 50.8874 374.299 51.904 373.944 53.1245C373.759 53.5367 373.525 53.7429 373.241 53.7429H373.239Z" fill="white"/>
<path d="M378.949 59.8791C378.693 59.8791 378.459 59.8014 378.245 59.645C378.245 59.6309 378.231 59.6137 378.203 59.5921C378.174 59.5705 378.146 59.5392 378.118 59.496C378.089 59.454 378.076 59.4183 378.076 59.3892C378.076 59.3471 378.082 59.3115 378.097 59.2824C378.182 59.1259 378.282 59.0482 378.395 59.0482L378.48 59.0698C378.58 59.0978 378.665 59.1119 378.736 59.1119C378.963 59.1119 379.162 58.9273 379.333 58.5583L379.376 58.4946C379.688 57.8838 379.944 57.2514 380.143 56.5985C380.484 55.1071 380.715 53.879 380.836 52.9121C380.957 51.9463 381.017 51.2146 381.017 50.7171C381.017 50.5185 381.01 50.4117 380.996 50.3977H380.974C380.945 50.3977 380.867 50.497 380.74 50.6955L379.441 52.6132C379.27 52.883 379.072 53.1387 378.844 53.3805C378.616 53.6222 378.361 53.7431 378.077 53.7431C377.864 53.7431 377.672 53.6794 377.502 53.551C377.246 53.3805 377.118 53.0891 377.118 52.6779C377.118 52.1956 377.281 51.506 377.608 50.6114C377.991 49.5031 378.503 48.6937 379.143 48.1822C379.47 47.9264 379.789 47.7991 380.101 47.7991C380.314 47.7991 380.52 47.8627 380.72 47.9912C380.734 47.9912 380.762 48.002 380.805 48.0235C380.848 48.0451 380.904 48.0559 380.975 48.0559L381.124 48.0343C381.266 47.9631 381.394 47.9275 381.507 47.9275C381.848 47.9275 382.09 48.1056 382.231 48.4606C382.303 48.6451 382.338 48.8372 382.338 49.0358C382.309 52.3596 381.777 55.3208 380.74 57.9205C380.47 58.5593 380.215 59.0352 379.973 59.3482C379.675 59.7032 379.334 59.8813 378.95 59.8813L378.949 59.8791ZM378.502 52.2085L378.885 51.6117L380.249 49.311L380.356 49.162C380.455 49.0487 380.505 48.9495 380.505 48.8642C380.505 48.7369 380.427 48.6721 380.271 48.6721C380.199 48.6721 380.093 48.7433 379.951 48.8847L379.781 49.0336C379.099 49.9002 378.63 50.9437 378.375 52.1653L378.502 52.2074V52.2085Z" fill="white"/>
<path d="M384.169 53.6998C383.615 53.6998 383.338 53.3372 383.338 52.6131C383.338 51.7325 383.459 50.7095 383.7 49.5451C383.871 48.5933 384.119 48.1174 384.446 48.1174C384.531 48.1174 384.616 48.1314 384.702 48.1605C385 48.2749 385.15 48.4659 385.15 48.7357L385.086 49.0131C384.887 49.4814 384.737 49.9649 384.638 50.4624C384.468 51.2868 384.368 51.9322 384.34 52.4016C384.34 52.6854 384.362 52.9703 384.404 53.2541C384.404 53.552 384.326 53.702 384.17 53.702L384.169 53.6998ZM385.341 47.649C384.942 47.649 384.736 47.4569 384.722 47.0738C384.879 46.1932 385.099 45.7529 385.383 45.7529C385.482 45.7529 385.589 45.7885 385.702 45.8598C385.958 45.9871 386.085 46.1511 386.085 46.3497C386.085 46.4069 386.071 46.4565 386.043 46.4986C385.873 46.7404 385.752 46.9929 385.68 47.2551C385.609 47.5184 385.496 47.649 385.339 47.649H385.341Z" fill="white"/>
<path d="M389.41 53.9341C389.325 53.9341 389.232 53.878 389.133 53.7636C389.119 53.7356 389.097 53.714 389.069 53.7C388.856 53.4874 388.557 53.3665 388.174 53.3374L388.132 53.3158C387.692 53.2445 387.259 53.2089 386.833 53.2089C386.648 53.2089 386.456 53.2165 386.258 53.2305C386.059 53.2445 385.861 53.2521 385.661 53.2521C385.462 53.2381 385.284 53.1744 385.128 53.06C384.971 52.9467 384.894 52.7622 384.894 52.5064C384.894 52.3219 385.036 52.1298 385.32 51.9312C387.238 50.7236 388.523 49.829 389.177 49.2463C389.062 49.161 388.921 49.1189 388.751 49.1189C388.126 49.1189 387.507 49.2042 386.897 49.3747L386.684 49.4179C386.371 49.4179 386.216 49.2193 386.216 48.8211C386.216 48.5513 386.372 48.3808 386.684 48.3096C387.408 48.125 388.14 48.0322 388.879 48.0322C389.064 48.0322 389.262 48.0538 389.476 48.0959C390.001 48.2664 390.265 48.5934 390.265 49.0758C390.265 49.488 390.023 49.8992 389.541 50.3114C389.243 50.5531 388.759 50.9006 388.091 51.3549C387.849 51.5114 387.615 51.6744 387.388 51.8449C387.189 51.9442 387.09 52.0445 387.09 52.1427C387.459 52.228 387.828 52.2992 388.198 52.3553C388.922 52.4697 389.392 52.7676 389.604 53.2499C389.604 53.264 389.612 53.2715 389.626 53.2715C389.683 53.3848 389.711 53.4992 389.711 53.6125C389.711 53.7118 389.672 53.7906 389.593 53.8467C389.516 53.9039 389.455 53.932 389.412 53.932L389.41 53.9341Z" fill="white"/>
<path d="M392.073 53.6998C391.52 53.6998 391.243 53.3372 391.243 52.6131C391.243 51.7325 391.363 50.7095 391.605 49.5451C391.776 48.5933 392.024 48.1174 392.351 48.1174C392.436 48.1174 392.521 48.1314 392.607 48.1605C392.904 48.2749 393.054 48.4659 393.054 48.7357L392.991 49.0131C392.792 49.4814 392.642 49.9649 392.543 50.4624C392.372 51.2868 392.273 51.9322 392.245 52.4016C392.245 52.6854 392.267 52.9703 392.309 53.2541C392.309 53.552 392.231 53.702 392.075 53.702L392.073 53.6998ZM393.245 47.649C392.847 47.649 392.641 47.4569 392.627 47.0738C392.784 46.1932 393.004 45.7529 393.288 45.7529C393.387 45.7529 393.494 45.7885 393.607 45.8598C393.863 45.9871 393.99 46.1511 393.99 46.3497C393.99 46.4069 393.976 46.4565 393.948 46.4986C393.777 46.7404 393.657 46.9929 393.585 47.2551C393.514 47.5184 393.401 47.649 393.244 47.649H393.245Z" fill="white"/>
<path d="M397.954 54.7446C397.541 54.7446 397.293 54.5525 397.208 54.1694C397.165 53.9708 397.144 53.7722 397.144 53.5726C397.144 52.7632 397.365 51.3776 397.805 49.4179L397.89 48.9916C397.89 48.9635 397.883 48.9387 397.868 48.9171C397.854 48.8955 397.847 48.8783 397.847 48.8642C397.704 48.9495 397.563 49.0984 397.421 49.3121C396.441 50.5909 395.787 51.5136 395.46 52.0823L395.247 52.4017C395.049 52.6575 394.857 52.7848 394.672 52.7848C394.601 52.7848 394.523 52.7708 394.438 52.7417C394.026 52.6424 393.821 52.337 393.821 51.8255C393.821 51.3139 393.87 50.7528 393.969 50.142C394.069 49.5312 394.176 49.1081 394.289 48.874C394.402 48.6398 394.495 48.4973 394.566 48.4477C394.637 48.3981 394.715 48.3732 394.8 48.3732C394.985 48.3732 395.17 48.4585 395.354 48.629C395.467 48.7434 395.525 48.8632 395.525 48.9916C395.453 49.5884 395.411 49.9186 395.397 49.9823C395.383 50.0459 395.368 50.0999 395.355 50.142C395.341 50.1841 395.334 50.2197 395.334 50.2488C395.419 50.2067 395.482 50.1495 395.526 50.0783C396.065 49.283 396.634 48.5308 397.23 47.8196C397.684 47.2941 398.096 47.0308 398.465 47.0308C399.005 47.0308 399.275 47.3793 399.275 48.0743C399.275 48.2308 399.233 48.465 399.147 48.7779C398.508 51.179 398.181 52.8765 398.167 53.8705C398.167 54.041 398.181 54.2115 398.209 54.382V54.4456C398.209 54.6442 398.124 54.7435 397.954 54.7435V54.7446Z" fill="white"/>
<path d="M401.406 59.8791C401.15 59.8791 400.916 59.8014 400.702 59.645C400.702 59.6309 400.688 59.6137 400.66 59.5921C400.631 59.5705 400.603 59.5392 400.575 59.496C400.546 59.454 400.533 59.4183 400.533 59.3892C400.533 59.3471 400.539 59.3115 400.554 59.2824C400.64 59.1259 400.739 59.0482 400.852 59.0482L400.938 59.0698C401.037 59.0978 401.122 59.1119 401.193 59.1119C401.42 59.1119 401.62 58.9273 401.79 58.5583L401.833 58.4946C402.145 57.8838 402.401 57.2514 402.601 56.5985C402.942 55.1071 403.173 53.879 403.293 52.9121C403.414 51.9463 403.475 51.2146 403.475 50.7171C403.475 50.5185 403.467 50.4117 403.453 50.3977H403.432C403.402 50.3977 403.325 50.497 403.197 50.6955L401.898 52.6132C401.728 52.883 401.529 53.1387 401.301 53.3805C401.074 53.6222 400.818 53.7431 400.534 53.7431C400.321 53.7431 400.129 53.6794 399.959 53.551C399.703 53.3805 399.576 53.0891 399.576 52.6779C399.576 52.1956 399.739 51.506 400.066 50.6114C400.449 49.5031 400.96 48.6937 401.6 48.1822C401.927 47.9264 402.247 47.7991 402.558 47.7991C402.771 47.7991 402.977 47.8627 403.177 47.9912C403.191 47.9912 403.219 48.002 403.262 48.0235C403.305 48.0451 403.361 48.0559 403.433 48.0559L403.582 48.0343C403.723 47.9631 403.851 47.9275 403.965 47.9275C404.306 47.9275 404.546 48.1056 404.689 48.4606C404.76 48.6451 404.796 48.8372 404.796 49.0358C404.766 52.3596 404.234 55.3208 403.197 57.9205C402.928 58.5593 402.672 59.0352 402.43 59.3482C402.132 59.7032 401.791 59.8813 401.407 59.8813L401.406 59.8791ZM400.958 52.2085L401.341 51.6117L402.705 49.311L402.812 49.162C402.911 49.0487 402.961 48.9495 402.961 48.8642C402.961 48.7369 402.883 48.6721 402.727 48.6721C402.656 48.6721 402.549 48.7433 402.407 48.8847L402.237 49.0336C401.555 49.9002 401.087 50.9437 400.831 52.1653L400.958 52.2074V52.2085Z" fill="white"/>
<path d="M346.095 72.1229C345.47 72.1229 345.157 71.6405 345.157 70.6736C345.157 69.5232 345.334 67.9886 345.69 66.071C345.861 65.1483 346.01 64.4587 346.138 64.0044C345.91 64.0184 345.719 64.0432 345.563 64.0788C345.406 64.1144 345.315 64.1468 345.286 64.1749C345.256 64.2029 345.2 64.217 345.115 64.217C344.902 64.217 344.718 64.068 344.561 63.7691C344.49 63.6277 344.455 63.4993 344.455 63.386C344.455 63.1874 344.575 63.045 344.817 62.9597C344.959 62.9177 345.35 62.8745 345.989 62.8324C346.401 62.8044 346.671 62.6198 346.799 62.2788C347.068 61.6399 347.317 61.3065 347.544 61.2773C347.686 61.2773 347.822 61.313 347.949 61.3842C348.176 61.5115 348.29 61.668 348.29 61.8525C348.29 61.9378 348.268 62.023 348.226 62.1083C348.112 62.2788 348.048 62.4493 348.034 62.6198C348.119 62.6619 348.254 62.6835 348.439 62.6835C348.921 62.6835 349.341 62.7299 349.696 62.8216C350.051 62.9144 350.257 63.1378 350.314 63.4929C350.314 63.7346 350.165 63.8554 349.867 63.8554C349.724 63.7842 349.383 63.7486 348.844 63.7486C348.076 63.7486 347.636 63.7983 347.523 63.8975C347.338 64.054 347.124 64.7069 346.884 65.8573C346.429 67.9314 346.202 69.6149 346.202 70.9067C346.202 71.2336 346.258 71.5034 346.372 71.716C346.4 71.7732 346.414 71.8229 346.414 71.8649C346.414 72.0063 346.308 72.0916 346.095 72.1207V72.1229Z" fill="white"/>
<path d="M351.826 71.5058C351.273 71.5058 350.995 70.8173 350.995 69.4392C350.995 68.8144 351.158 67.9198 351.485 66.7543C350.278 68.6439 349.546 69.7802 349.29 70.1633C349.134 70.3479 348.935 70.4407 348.693 70.4407C348.324 70.4407 348.14 69.9723 348.14 69.0345C348.14 66.9895 348.743 64.3974 349.951 61.2581C350.278 60.5761 350.533 60.2351 350.718 60.2351H350.803C351.073 60.2351 351.279 60.3981 351.421 60.725C351.45 60.8103 351.465 60.888 351.465 60.9592C351.465 61.1157 351.407 61.2722 351.294 61.4276C351.11 61.7686 350.804 62.5672 350.378 63.8244C349.952 65.0816 349.611 66.6194 349.355 68.4378C350.278 66.9464 350.946 65.9946 351.358 65.5823C351.556 65.3406 351.784 65.2197 352.04 65.2197C352.181 65.2197 352.296 65.2413 352.381 65.2834C352.637 65.3967 352.764 65.5888 352.764 65.8586L352.742 66.0291C352.288 67.8615 352.011 69.2396 351.911 70.1623C351.911 70.5745 351.961 70.8864 352.06 71.1C352.088 71.1713 352.102 71.2349 352.102 71.2921C352.102 71.4346 352.01 71.5047 351.825 71.5047L351.826 71.5058Z" fill="white"/>
<path d="M355.662 71.3571C354.937 71.2999 354.327 70.9093 353.829 70.1852C353.587 69.7589 353.467 69.3186 353.467 68.8643C353.51 67.6707 353.992 66.6347 354.916 65.7531C355.455 65.2987 356.009 65.071 356.578 65.071C357.401 65.071 357.813 65.398 357.813 66.0509C357.813 66.2074 357.803 66.3175 357.781 66.3811C357.759 66.4448 357.742 66.5052 357.728 66.5624C357.643 66.8322 357.43 67.1419 357.089 67.4894C356.748 67.838 356.379 68.1283 355.981 68.3625C355.583 68.5966 355.242 68.7143 354.958 68.7143C354.73 68.7143 354.595 68.7434 354.553 68.7995C354.511 68.8567 354.49 68.9776 354.49 69.1621C354.49 69.5172 354.61 69.787 354.852 69.9715C355.094 70.156 355.314 70.2488 355.513 70.2488C355.711 70.2488 355.945 70.1571 356.216 69.9715C356.272 69.9434 356.33 69.9294 356.387 69.9294C356.5 69.9294 356.604 69.9974 356.695 70.1323C356.787 70.2672 356.834 70.3988 356.834 70.5262L356.812 70.6967C356.584 71.137 356.201 71.3571 355.662 71.3571ZM355.086 67.6276L355.193 67.606C355.705 67.3362 356.145 66.9812 356.514 66.5409C356.613 66.4416 356.663 66.3347 356.663 66.2214C356.663 66.1502 356.627 66.1146 356.556 66.1146C356.471 66.1146 356.344 66.1567 356.173 66.2419C355.875 66.3693 355.626 66.5689 355.427 66.8387C355.172 67.1797 355.044 67.4279 355.044 67.5844C355.044 67.6125 355.058 67.6265 355.087 67.6265L355.086 67.6276Z" fill="white"/>
<path d="M369.383 74.9999C369.07 74.9999 368.858 74.8013 368.744 74.4031C368.516 73.5366 368.403 72.0883 368.403 70.0563L368.425 68.6922C368.34 68.6361 368.205 68.607 368.02 68.607C367.893 68.607 367.456 68.6253 366.71 68.6598C365.964 68.6955 365.47 68.7127 365.229 68.7127C365.144 68.7127 365.073 68.7343 365.017 68.7764L364.804 69.3732C364.165 71.021 363.746 72.3279 363.547 73.2937C363.476 73.5635 363.409 73.7308 363.344 73.7945C363.279 73.8581 363.198 73.8905 363.099 73.8905C362.631 73.8905 362.397 73.6628 362.397 73.2085C362.425 72.7682 362.829 71.32 363.611 68.8616L363.632 68.798C363.632 68.7268 363.569 68.6911 363.44 68.6911C363.014 68.6911 362.801 68.5142 362.801 68.158C362.801 68.0588 362.815 67.9454 362.844 67.817C362.873 67.6185 363.221 67.5192 363.888 67.5192C364.115 67.5051 364.3 67.3422 364.442 67.0292C365.748 64.217 366.97 62.2281 368.106 61.0637C368.589 60.5521 369.029 60.2964 369.427 60.2964C369.896 60.2964 370.229 60.5737 370.429 61.1273C370.5 61.3691 370.536 61.6032 370.536 61.8309C370.522 62.0867 370.422 63.0029 370.238 64.5796C369.826 67.435 369.619 69.7498 369.619 71.525C369.619 72.9031 369.74 73.9391 369.982 74.6351C369.968 74.8769 369.769 74.9977 369.385 74.9977L369.383 74.9999ZM366.293 67.5634C367.032 67.5634 367.777 67.5354 368.531 67.4782C368.602 66.2997 368.872 64.2968 369.34 61.4694C368.033 62.8043 366.776 64.8353 365.568 67.5634H366.292H366.293Z" fill="white"/>
<path d="M372.344 71.1434C371.805 71.1434 371.407 70.8952 371.151 70.3978C370.952 70.0567 370.853 69.6941 370.853 69.311C370.853 68.0182 371.293 66.7826 372.174 65.6041C372.557 65.1358 372.948 64.9016 373.346 64.9016C373.744 64.9016 374.028 65.0721 374.198 65.4131C374.24 65.5264 374.262 65.6192 374.262 65.6905C374.248 65.861 374.13 65.9495 373.91 65.957C373.69 65.9646 373.516 66.039 373.388 66.1804C372.479 67.1603 372.025 68.3754 372.025 69.8236C372.025 70.0222 372.075 70.1215 372.174 70.1215C372.216 70.1215 372.451 69.8798 372.877 69.3974C373.034 69.2409 373.183 69.1632 373.325 69.1632C373.482 69.1632 373.617 69.2128 373.73 69.3121C373.843 69.4114 373.9 69.5182 373.9 69.6316C373.545 70.3416 373.197 70.8035 372.857 71.0161C372.7 71.1014 372.53 71.1434 372.345 71.1434H372.344Z" fill="white"/>
<path d="M376.307 71.1434C375.767 71.1434 375.369 70.8952 375.114 70.3978C374.915 70.0567 374.816 69.6941 374.816 69.311C374.816 68.0182 375.256 66.7826 376.137 65.6041C376.52 65.1358 376.91 64.9016 377.309 64.9016C377.707 64.9016 377.991 65.0721 378.161 65.4131C378.203 65.5264 378.225 65.6192 378.225 65.6905C378.211 65.861 378.093 65.9495 377.873 65.957C377.653 65.9646 377.479 66.039 377.351 66.1804C376.442 67.1603 375.987 68.3754 375.987 69.8236C375.987 70.0222 376.036 70.1215 376.135 70.1215C376.178 70.1215 376.413 69.8798 376.839 69.3974C376.996 69.2409 377.144 69.1632 377.287 69.1632C377.443 69.1632 377.578 69.2128 377.692 69.3121C377.805 69.4114 377.862 69.5182 377.862 69.6316C377.507 70.3416 377.159 70.8035 376.819 71.0161C376.662 71.1014 376.492 71.1434 376.307 71.1434Z" fill="white"/>
<path d="M380.995 71.3571C380.271 71.2999 379.66 70.9093 379.162 70.1852C378.921 69.7589 378.8 69.3186 378.8 68.8643C378.843 67.6707 379.325 66.6347 380.249 65.7531C380.789 65.2987 381.342 65.071 381.911 65.071C382.734 65.071 383.147 65.398 383.147 66.0509C383.147 66.2074 383.136 66.3175 383.114 66.3811C383.093 66.4448 383.075 66.5052 383.061 66.5624C382.976 66.8322 382.763 67.1419 382.422 67.4894C382.081 67.838 381.712 68.1283 381.314 68.3625C380.916 68.5966 380.575 68.7143 380.291 68.7143C380.063 68.7143 379.928 68.7434 379.886 68.7995C379.844 68.8567 379.823 68.9776 379.823 69.1621C379.823 69.5172 379.944 69.787 380.185 69.9715C380.427 70.156 380.647 70.2488 380.846 70.2488C381.044 70.2488 381.279 70.1571 381.549 69.9715C381.605 69.9434 381.663 69.9294 381.72 69.9294C381.833 69.9294 381.937 69.9974 382.029 70.1323C382.12 70.2672 382.167 70.3988 382.167 70.5262L382.145 70.6967C381.917 71.137 381.534 71.3571 380.995 71.3571ZM380.419 67.6276L380.526 67.606C381.038 67.3362 381.478 66.9812 381.847 66.5409C381.947 66.4416 381.996 66.3347 381.996 66.2214C381.996 66.1502 381.961 66.1146 381.889 66.1146C381.804 66.1146 381.677 66.1567 381.506 66.2419C381.208 66.3693 380.959 66.5689 380.761 66.8387C380.505 67.1797 380.377 67.4279 380.377 67.5844C380.377 67.6125 380.391 67.6265 380.421 67.6265L380.419 67.6276Z" fill="white"/>
<path d="M384.68 73.4226C384.367 73.4226 384.111 73.2381 383.913 72.869C383.756 72.4999 383.679 71.8956 383.679 71.0582C383.679 70.334 383.714 69.5959 383.785 68.8426C383.984 66.9682 384.233 65.3915 384.531 64.1127C384.773 63.0897 385.12 62.1314 385.575 61.2368C385.93 60.5407 386.243 60.1857 386.512 60.1716C386.654 60.1716 386.796 60.2493 386.939 60.4058C387.052 60.4911 387.109 60.5903 387.109 60.7037C387.109 60.817 387.074 60.9454 387.002 61.0868C386.306 62.3515 385.809 63.6929 385.511 65.1131C384.971 67.4851 384.702 69.5452 384.702 71.2923C384.702 72.1017 384.829 72.6985 385.085 73.0816L385.106 73.1668C385.106 73.2801 385.021 73.3589 384.851 73.401L384.68 73.4226Z" fill="white"/>
<path d="M388.622 71.3571C387.898 71.2999 387.287 70.9093 386.79 70.1852C386.548 69.7589 386.427 69.3186 386.427 68.8643C386.471 67.6707 386.953 66.6347 387.877 65.7531C388.416 65.2987 388.97 65.071 389.539 65.071C390.362 65.071 390.774 65.398 390.774 66.0509C390.774 66.2074 390.763 66.3175 390.742 66.3811C390.72 66.4448 390.703 66.5052 390.689 66.5624C390.604 66.8322 390.391 67.1419 390.05 67.4894C389.709 67.838 389.34 68.1283 388.942 68.3625C388.544 68.5966 388.203 68.7143 387.919 68.7143C387.691 68.7143 387.556 68.7434 387.514 68.7995C387.472 68.8567 387.45 68.9776 387.45 69.1621C387.45 69.5172 387.571 69.787 387.813 69.9715C388.055 70.156 388.275 70.2488 388.473 70.2488C388.672 70.2488 388.906 70.1571 389.177 69.9715C389.233 69.9434 389.29 69.9294 389.348 69.9294C389.461 69.9294 389.564 69.9974 389.656 70.1323C389.748 70.2672 389.794 70.3988 389.794 70.5262L389.773 70.6967C389.545 71.137 389.162 71.3571 388.622 71.3571ZM388.047 67.6276L388.154 67.606C388.666 67.3362 389.106 66.9812 389.475 66.5409C389.574 66.4416 389.624 66.3347 389.624 66.2214C389.624 66.1502 389.588 66.1146 389.517 66.1146C389.432 66.1146 389.304 66.1567 389.134 66.2419C388.836 66.3693 388.587 66.5689 388.388 66.8387C388.132 67.1797 388.005 67.4279 388.005 67.5844C388.005 67.6125 388.019 67.6265 388.048 67.6265L388.047 67.6276Z" fill="white"/>
<path d="M391.797 70.9511H391.69C391.363 70.8799 391.208 70.6954 391.222 70.3975L391.244 70.1633C391.571 67.1093 391.94 65.3125 392.352 64.7729C392.437 64.6737 392.572 64.624 392.757 64.624C393.211 64.624 393.424 64.8161 393.395 65.1992L392.969 66.7759C394.092 65.5823 394.879 64.9866 395.335 64.9866C395.832 64.9866 396.066 65.1992 396.038 65.6255C396.038 65.7107 395.995 65.7528 395.911 65.7528C395.314 65.9654 394.686 66.4769 394.026 67.2863C393.365 68.0957 392.857 69.1122 392.502 70.3328C392.317 70.745 392.083 70.9511 391.799 70.9511H391.797Z" fill="white"/>
<path d="M399.531 67.9899C399.375 68.7852 399.283 69.41 399.254 69.8644C399.254 70.1341 399.276 70.4039 399.318 70.6737C399.318 70.9575 399.24 71.1 399.084 71.1C398.558 71.1 398.296 70.7525 398.296 70.0564C398.296 69.5309 398.338 68.9557 398.423 68.3309C398.38 68.3881 398.324 68.4798 398.253 68.6082L397.955 69.0561C397.543 69.7662 397.209 70.214 396.953 70.3985C396.755 70.541 396.541 70.6111 396.314 70.6111C396.158 70.6111 395.987 70.569 395.803 70.4838C395.476 70.3133 395.313 69.9302 395.313 69.3334C395.313 68.7366 395.491 68.1118 395.846 67.4158C396.073 66.9755 396.344 66.6064 396.655 66.3075C397.01 65.9805 397.352 65.8175 397.678 65.8175C397.976 65.8175 398.254 65.974 398.509 66.2859L398.957 65.6039C399.114 65.3913 399.249 65.2844 399.362 65.2844C399.433 65.2844 399.518 65.306 399.618 65.3481C399.888 65.4625 400.022 65.6459 400.022 65.9017C400.022 65.9589 400.015 66.0441 400.001 66.1575C399.731 67.1805 399.575 67.7913 399.532 67.9899H399.531ZM396.442 69.5449C396.754 69.2331 397.045 68.8208 397.315 68.3093C397.67 67.7697 397.848 67.3866 397.848 67.1589C397.848 67.0024 397.798 66.9247 397.699 66.9247H397.614C397.543 66.9388 397.457 67.01 397.358 67.1373C397.145 67.4352 396.946 67.8194 396.761 68.2877C396.577 68.7561 396.47 69.1759 396.442 69.5449Z" fill="white"/>
<path d="M402.003 72.1229C401.378 72.1229 401.065 71.6405 401.065 70.6736C401.065 69.5232 401.242 67.9886 401.598 66.071C401.769 65.1483 401.918 64.4587 402.046 64.0044C401.818 64.0184 401.627 64.0432 401.471 64.0788C401.314 64.1144 401.223 64.1468 401.193 64.1749C401.164 64.2029 401.108 64.217 401.023 64.217C400.81 64.217 400.626 64.068 400.469 63.7691C400.398 63.6277 400.362 63.4993 400.362 63.386C400.362 63.1874 400.483 63.045 400.725 62.9597C400.866 62.9177 401.258 62.8745 401.897 62.8324C402.309 62.8044 402.579 62.6198 402.706 62.2788C402.976 61.6399 403.224 61.3065 403.452 61.2773C403.593 61.2773 403.729 61.313 403.857 61.3842C404.083 61.5115 404.198 61.668 404.198 61.8525C404.198 61.9378 404.176 62.023 404.134 62.1083C404.02 62.2788 403.956 62.4493 403.942 62.6198C404.027 62.6619 404.162 62.6835 404.347 62.6835C404.829 62.6835 405.249 62.7299 405.604 62.8216C405.959 62.9144 406.165 63.1378 406.222 63.4929C406.222 63.7346 406.073 63.8554 405.774 63.8554C405.632 63.7842 405.291 63.7486 404.751 63.7486C403.984 63.7486 403.544 63.7983 403.43 63.8975C403.246 64.054 403.032 64.7069 402.792 65.8573C402.337 67.9314 402.11 69.6149 402.11 70.9067C402.11 71.2336 402.166 71.5034 402.28 71.716C402.308 71.7732 402.322 71.8229 402.322 71.8649C402.322 72.0063 402.215 72.0916 402.003 72.1207V72.1229Z" fill="white"/>
<path d="M405.263 70.9091C404.709 70.9091 404.432 70.5465 404.432 69.8224C404.432 68.9418 404.553 67.9187 404.794 66.7543C404.965 65.8025 405.213 65.3266 405.54 65.3266C405.625 65.3266 405.711 65.3406 405.796 65.3698C406.094 65.4831 406.244 65.6752 406.244 65.9449L406.18 66.2223C405.982 66.6906 405.832 67.1741 405.732 67.6705C405.562 68.495 405.462 69.1403 405.434 69.6098C405.434 69.8936 405.456 70.1785 405.498 70.4623C405.498 70.7601 405.42 70.9101 405.264 70.9101L405.263 70.9091ZM406.435 64.8582C406.037 64.8582 405.83 64.6661 405.816 64.283C405.973 63.4025 406.193 62.9622 406.477 62.9622C406.576 62.9622 406.683 62.9978 406.796 63.069C407.052 63.1963 407.179 63.3604 407.179 63.5589C407.179 63.6161 407.165 63.6658 407.137 63.7079C406.967 63.9496 406.846 64.2021 406.775 64.4643C406.704 64.7277 406.59 64.8582 406.434 64.8582H406.435Z" fill="white"/>
<path d="M408.267 70.8662C407.813 70.8662 407.472 70.6245 407.244 70.1421C407.173 69.9004 407.137 69.6522 407.137 69.3964C407.137 68.3313 407.435 67.2165 408.032 66.051C408.202 65.724 408.415 65.4327 408.671 65.178C408.869 64.9794 409.061 64.8801 409.246 64.8801C409.402 64.8801 409.565 64.9654 409.736 65.1359C410.29 65.6334 410.567 66.201 410.567 66.8399L410.588 67.2446C410.588 67.5143 410.546 67.7701 410.461 68.0118C410.233 68.8363 409.85 69.596 409.311 70.2921C409.013 70.6752 408.664 70.8673 408.267 70.8673V70.8662ZM408.416 69.7795C408.529 69.6522 408.779 69.2183 409.162 68.4802C409.404 68.0118 409.524 67.5575 409.524 67.1161C409.524 66.7751 409.453 66.4341 409.312 66.0931C408.687 67.0589 408.374 68.0604 408.374 69.0975C408.374 69.3252 408.388 69.5518 408.416 69.7795Z" fill="white"/>
<path d="M415.383 71.9525C414.971 71.9525 414.723 71.7604 414.638 71.3773C414.594 71.1787 414.574 70.9802 414.574 70.7805C414.574 69.9711 414.794 68.5855 415.234 66.6258L415.32 66.1995C415.32 66.1714 415.312 66.1466 415.298 66.125C415.284 66.1034 415.276 66.0862 415.276 66.0722C415.134 66.1574 414.993 66.3063 414.85 66.52C413.87 67.7988 413.216 68.7215 412.889 69.2902L412.677 69.6096C412.478 69.8654 412.286 69.9927 412.102 69.9927C412.03 69.9927 411.953 69.9787 411.867 69.9506C411.455 69.8514 411.249 69.546 411.249 69.0344C411.249 68.5229 411.299 67.9618 411.398 67.351C411.497 66.7402 411.604 66.3171 411.717 66.0829C411.831 65.8488 411.923 65.7063 411.995 65.6567C412.066 65.607 412.144 65.5822 412.229 65.5822C412.413 65.5822 412.598 65.6675 412.783 65.838C412.896 65.9524 412.953 66.0722 412.953 66.2006C412.882 66.7973 412.84 67.1276 412.826 67.1912C412.812 67.2549 412.797 67.3089 412.784 67.351C412.77 67.393 412.762 67.4287 412.762 67.4578C412.847 67.4146 412.911 67.3585 412.954 67.2873C413.494 66.4919 414.062 65.7398 414.658 65.0286C415.112 64.5031 415.525 64.2397 415.894 64.2397C416.433 64.2397 416.703 64.5883 416.703 65.2833C416.703 65.4398 416.661 65.6739 416.576 65.9869C415.937 68.388 415.61 70.0855 415.596 71.0794C415.596 71.2499 415.61 71.4204 415.638 71.591V71.6546C415.638 71.8532 415.553 71.9525 415.382 71.9525H415.383Z" fill="white"/>
</g>
<defs>
<clipPath id="clip0_366_3590">
<rect width="72.2484" height="75" fill="white" transform="translate(344.455)"/>
</clipPath>
</defs>
</svg>
